<?xml version="1.0" encoding="UTF-8" standalone="no"?>
<!-- Created with Inkscape (http://www.inkscape.org/) -->

<svg
   xmlns:dc="http://purl.org/dc/elements/1.1/"
   xmlns:cc="http://creativecommons.org/ns#"
   xmlns:rdf="http://www.w3.org/1999/02/22-rdf-syntax-ns#"
   xmlns:svg="http://www.w3.org/2000/svg"
   xmlns="http://www.w3.org/2000/svg"
   xmlns:sodipodi="http://sodipodi.sourceforge.net/DTD/sodipodi-0.dtd"
   xmlns:inkscape="http://www.inkscape.org/namespaces/inkscape"
   width="210mm"
   height="297mm"
   viewBox="0 0 744.09448819 1052.3622047"
   id="svg2"
   version="1.1"
   inkscape:version="0.91 r13725"
   sodipodi:docname="logor.svg">
  <defs
     id="defs4" />
  <sodipodi:namedview
     id="base"
     pagecolor="#ffffff"
     bordercolor="#666666"
     borderopacity="1.0"
     inkscape:pageopacity="0.0"
     inkscape:pageshadow="2"
     inkscape:zoom="0.35"
     inkscape:cx="375"
     inkscape:cy="520"
     inkscape:document-units="px"
     inkscape:current-layer="layer1"
     showgrid="false"
     inkscape:window-width="1539"
     inkscape:window-height="876"
     inkscape:window-x="61"
     inkscape:window-y="24"
     inkscape:window-maximized="1" />
  <metadata
     id="metadata7">
    <rdf:RDF>
      <cc:Work
         rdf:about="">
        <dc:format>image/svg+xml</dc:format>
        <dc:type
           rdf:resource="http://purl.org/dc/dcmitype/StillImage" />
        <dc:title></dc:title>
      </cc:Work>
    </rdf:RDF>
  </metadata>
  <g
     inkscape:label="Capa 1"
     inkscape:groupmode="layer"
     id="layer1">
    <path
       style="fill:none;fill-rule:evenodd;stroke:#000000;stroke-width:1px;stroke-linecap:butt;stroke-linejoin:miter;stroke-opacity:1"
       d="m 37.142857,998.07649 c 0,-20.95238 0,-41.90476 0,-62.85714 0,-3.80953 0,-7.61905 0,-11.42857 0,-1.90477 -0.602338,-3.90727 0,-5.71429 0.673435,-2.0203 2.183708,-3.69398 2.857143,-5.71429 1.012011,-3.03603 -1.012011,-8.39253 0,-11.42857 0.673435,-2.0203 2.183708,-3.69398 2.857143,-5.71428 0.301169,-0.90351 0,-1.90476 0,-2.85715 0,-2.69096 -0.541774,-12.66039 0,-14.28571 0.425918,-1.27775 2.254804,-1.65247 2.857143,-2.85714 0.425917,-0.85184 0,-1.90476 0,-2.85715 0,-2.0426 -0.487513,-15.68032 0,-17.14285 0.425917,-1.27776 2.431225,-1.57939 2.857143,-2.85715 0.882296,-2.64688 -0.912582,-11.54796 0,-14.28571 0.673435,-2.0203 2.340641,-3.64828 2.857142,-5.71429 0.56187,-2.24747 0,-14.17164 0,-17.14285 0,-1.90476 -0.461972,-3.8664 0,-5.71429 0.516502,-2.066 2.340642,-3.64828 2.857143,-5.71428 0.461973,-1.84789 0,-3.80953 0,-5.71429 0,-1.90476 0,-3.80952 0,-5.71429 0,-5.71428 0,-11.42857 0,-17.14285 0,-19.04762 0,-38.09524 0,-57.14286 0,-32.38095 0,-64.7619 0,-97.14286 0,-10.47619 0,-20.95238 0,-31.42857 0,-2.85714 0,-5.71428 0,-8.57143 0,-2.85714 0.469712,-5.75316 0,-8.57143 -0.495119,-2.97071 -2.362023,-5.60071 -2.857143,-8.57142 -0.469711,-2.81827 0,-5.71429 0,-8.57143 0,-2.85715 0,-5.71429 0,-8.57143 0,-8.57143 0,-17.14286 0,-25.71429 0,-29.52381 0,-59.04762 0,-88.57143 0,-20.95238 0,-41.90476 0,-62.85714 0,-9.52381 0,-19.04762 0,-28.57143 0,-1.90476 0,-3.80952 0,-5.71428 0,-1.90476 -0.461972,-3.8664 0,-5.71429 0.516502,-2.066 2.340642,-3.64828 2.857143,-5.71428 1.240176,-4.96071 -1.240175,-12.18216 0,-17.14286 0.516501,-2.06601 2.183708,-3.69398 2.857143,-5.71429 0.301169,-0.9035 0,-1.90476 0,-2.85714 0,-2.45237 -0.557217,-15.4712 0,-17.14286 0.425918,-1.27775 2.254804,-1.65246 2.857143,-2.85714 0.320186,-0.64037 0,-10.74963 0,-11.42857 0,-4.76191 0,-9.52381 0,-14.28572 0,-1.90476 -0.602339,-3.90727 0,-5.71428 0.425918,-1.27775 2.254804,-1.65247 2.857143,-2.85714 0.425918,-0.85184 0,-1.90477 0,-2.85715 0,-1.90476 0,-3.80952 0,-5.71428 0,-7.61905 0,-15.2381 0,-22.85715 0,-25.71428 0,-51.42857 0,-77.14285 0,-8.57143 0,-17.14286 0,-25.71429 0,-1.49406 -0.375631,-10.677308 0,-11.42857 0.602338,-1.204677 2.254804,-1.652465 2.857143,-2.857142 1.142857,-2.285715 -1.142857,-6.285715 0,-8.571429 5.945372,-11.890744 -0.197245,3.054387 5.714285,-2.857143 0.673435,-0.673435 -0.673435,-2.183708 0,-2.857143 0.673435,-0.673435 1.904762,0 2.857143,0 0.952381,0 1.904762,0 2.857143,0 8.571429,0 17.142857,0 25.714283,0 19.04762,0 38.09524,0 57.14286,0 7.61905,0 15.2381,0 22.85714,0 2.85715,0 5.86091,0.903508 8.57143,0 1.27775,-0.425917 1.65247,-2.254804 2.85714,-2.857143 0.85184,-0.425917 1.90477,0 2.85715,0 1.90476,0 3.80952,0 5.71428,0 6.66667,0 13.33334,0 20,0 2.85715,0 5.7996,0.692959 8.57143,0 2.06601,-0.516501 3.69398,-2.183707 5.71429,-2.857142 0.90351,-0.30117 1.90476,0 2.85714,0 1.90476,0 3.80952,0 5.71429,0 1.90476,0 3.86639,0.461972 5.71428,0 2.06601,-0.516502 3.64828,-2.340642 5.71429,-2.857143 4.9607,-1.240176 12.18215,1.240175 17.14285,0 2.06601,-0.516501 3.64829,-2.340642 5.71429,-2.857143 1.84789,-0.461973 3.80952,0 5.71429,0 1.90476,0 3.80952,0 5.71428,0 10.47619,0 20.95238,0 31.42857,0 24.76191,0 49.52381,0 74.28572,0 23.80952,0 47.61904,0 71.42857,0 7.61905,0 15.23809,0 22.85714,0 2.39254,0 12.11295,-0.54319 14.28572,0 2.066,0.516501 3.64828,2.340642 5.71428,2.857143 1.84789,0.461972 3.8664,-0.461973 5.71429,0 2.066,0.516501 3.64828,2.340641 5.71428,2.857143 2.77184,0.692959 5.86091,-0.903508 8.57143,0 2.02031,0.673435 3.69398,2.183707 5.71429,2.857142 1.80701,0.602339 4.01061,-0.851835 5.71428,0 1.20468,0.602339 1.65247,2.254805 2.85715,2.857143 0.85183,0.425918 2.0053,-0.425917 2.85714,0 1.20468,0.602339 1.57939,2.431225 2.85714,2.857143 1.80702,0.602339 3.8664,-0.461972 5.71429,0 5.17126,-1.722081 5.31378,4.628405 8.57143,5.714286 1.80701,0.602338 3.86639,-0.461973 5.71428,0 2.06601,0.516501 3.69398,2.183708 5.71429,2.857143 0.90351,0.301169 2.0053,-0.425918 2.85714,0 13.07602,6.53801 -12.12405,-1.184206 8.57143,5.714285 0.90351,0.30117 2.00531,-0.425917 2.85714,0 2.81151,1.405756 8.61706,10.02282 11.42857,11.42857 0.85184,0.42592 1.90476,0 2.85715,0 1.90476,0.95238 3.94236,1.67586 5.71428,2.85714 2.24133,1.49422 3.30493,4.50961 5.71429,5.71429 0.85183,0.42592 2.0053,-0.42592 2.85714,0 1.20468,0.60234 1.90476,1.90476 2.85714,2.85714 0.95238,0.95238 1.90476,1.90477 2.85715,2.85715 3.80952,3.80952 7.61904,7.61904 11.42857,11.42857 2.85714,2.85714 5.71428,5.71428 8.57143,8.57143 0.95238,0.95238 2.11003,1.73648 2.85714,2.85714 3.28306,4.92459 2.85714,4.31881 2.85714,8.57143 0,0.95238 -0.42592,2.00531 0,2.85714 0.76418,1.52836 4.95011,4.18593 5.71429,5.71429 0.42591,0.85183 0,1.90476 0,2.85714 0.95238,0.95238 2.2548,1.65246 2.85714,2.85714 0.42592,0.85184 -0.42592,2.00531 0,2.85714 0.60234,1.20468 2.43123,1.57939 2.85714,2.85715 0.60234,1.80701 0,3.80952 0,5.71428 0,0.95238 -0.42591,2.00531 0,2.85715 0.60234,1.20467 2.25481,1.65246 2.85715,2.85714 0.42591,0.85183 0,1.90476 0,2.85714 0,1.90476 -0.60234,3.90727 0,5.71429 0.42591,1.27775 2.2548,1.65246 2.85714,2.85714 0.85183,1.70367 -0.60234,3.90727 0,5.71429 0.67343,2.0203 2.34064,3.64828 2.85714,5.71428 0.46197,1.84789 0,3.80953 0,5.71429 0,0.95238 -0.42592,2.00531 0,2.85714 0.60234,1.20468 2.25481,1.65247 2.85714,2.85714 0.92804,1.85607 -0.90616,12.47338 0,14.28572 0.60234,1.20467 2.43123,1.57939 2.85715,2.85714 0.60234,1.80702 0,3.80952 0,5.71429 0,4.7619 0,9.52381 0,14.28571 0,1.90476 0,3.80952 0,5.71429 0,0.95238 -0.30117,1.95363 0,2.85714 0.67343,2.0203 2.34064,3.64828 2.85714,5.71428 0.46197,1.8479 0,3.80953 0,5.71429 0,1.90476 0,3.80952 0,5.71429 0,6.66666 0,13.33333 0,20 0,9.52381 0,19.04762 0,28.57142 0,2.33915 0.61706,12.43453 0,14.28572 -8.09384,16.18767 1.06479,-4.25918 -2.85714,11.42857 -0.5165,2.066 -2.34064,3.64828 -2.85715,5.71429 -0.92394,3.69578 0.92395,7.73279 0,11.42857 -0.5165,2.066 -2.34064,3.64828 -2.85714,5.71428 -0.46197,1.84789 0.46197,3.8664 0,5.71429 -0.5165,2.066 -2.34064,3.64828 -2.85714,5.71428 -0.92395,3.69579 0.92394,7.7328 0,11.42858 -0.5165,2.066 -2.34064,3.64828 -2.85714,5.71428 -0.46198,1.84789 0.46197,3.8664 0,5.71429 -1.03301,4.13201 -4.68129,7.29656 -5.71429,11.42857 -0.92395,3.69578 0.92395,7.73279 0,11.42857 -1.033,4.13201 -4.36742,7.38796 -5.71429,11.42857 -2.83507,8.50524 6.76535,-5.8623 -2.85714,8.57143 -0.74711,1.12066 -2.43122,1.57939 -2.85714,2.85714 -0.60234,1.80702 0.60234,3.90727 0,5.71429 -0.42592,1.27775 -2.11004,1.73648 -2.85714,2.85714 -1.18129,1.77193 -1.67586,3.94236 -2.85715,5.71429 -0.74711,1.12066 -2.2548,1.65246 -2.85714,2.85714 -0.42592,0.85184 0.30117,1.95364 0,2.85714 -3.45266,10.35798 -1.35561,2.03342 -5.71429,8.57143 -1.18128,1.77193 -1.67586,3.94236 -2.85714,5.71429 -0.74711,1.12066 -1.90476,1.90476 -2.85714,2.85714 -2.85714,2.85714 -5.71429,5.71429 -8.57143,8.57143 -0.95238,0.95238 -2.11003,1.73648 -2.85714,2.85714 -1.18129,1.77193 -1.67586,3.94236 -2.85715,5.71429 -1.49421,2.24132 -3.80952,3.80952 -5.71428,5.71428 -3.80953,3.80953 -7.61905,7.61905 -11.42857,11.42857 -2.85715,2.85715 -5.71429,5.71429 -8.57143,8.57143 -0.95238,0.95238 -1.73648,2.11004 -2.85714,2.85715 -1.77193,1.18128 -3.94237,1.67586 -5.71429,2.85714 -1.12066,0.74711 -1.65247,2.2548 -2.85714,2.85714 -0.85184,0.42592 -2.00531,-0.42592 -2.85715,0 -1.20467,0.60234 -1.73647,2.11004 -2.85714,2.85714 -10.37844,6.91897 -2.02047,-0.83667 -8.57143,5.71429 -0.95238,0.95238 -1.90476,1.90476 -2.85714,2.85714 -0.95238,0.95238 -1.57939,2.43123 -2.85714,2.85715 -1.80702,0.60233 -3.90727,-0.60234 -5.71429,0 -1.93471,0.6449 -6.38889,7.48016 -8.57143,8.57142 -0.85183,0.42592 -1.90476,0 -2.85714,0 -1.90476,0.95239 -3.94236,1.67586 -5.71429,2.85715 -1.12066,0.74711 -1.57939,2.43122 -2.85714,2.85714 -1.80701,0.60234 -3.90727,-0.60234 -5.71428,0 -1.27776,0.42592 -1.65247,2.2548 -2.85715,2.85714 -0.85183,0.42592 -1.95363,-0.30117 -2.85714,0 -2.02031,0.67344 -3.69398,2.18371 -5.71429,2.85715 -0.9035,0.30117 -1.95363,-0.30117 -2.85714,0 -20.69547,6.89849 4.50459,-0.82373 -8.57143,5.71428 -0.85183,0.42592 -1.95363,-0.30117 -2.85714,0 -2.02031,0.67344 -3.69398,2.18371 -5.71429,2.85714 -1.80701,0.60234 -3.90727,-0.60233 -5.71428,0 -2.02031,0.67344 -3.64828,2.34065 -5.71429,2.85715 -1.84789,0.46197 -3.90727,-0.60234 -5.71428,0 -1.27776,0.42592 -1.57939,2.43122 -2.85715,2.85714 -1.80701,0.60234 -3.86639,-0.46197 -5.71428,0 -2.06601,0.5165 -3.69398,2.18371 -5.71429,2.85714 -0.90351,0.30117 -1.95363,-0.30117 -2.85714,0 -2.02031,0.67344 -3.64828,2.34065 -5.71429,2.85715 -1.39197,0.34799 -9.91779,-0.75539 -11.42857,0 -1.20467,0.60233 -1.57939,2.43122 -2.85714,2.85714 -2.23369,0.74456 -15.57057,-0.78615 -17.14286,0 -1.20467,0.60234 -1.65246,2.2548 -2.85714,2.85714 -1.03324,0.51662 -12.29846,0 -14.28571,0 -0.95239,0 -2.18371,-0.67343 -2.85715,0 -0.67343,0.67344 0.67344,2.18371 0,2.85714 -0.8847,0.88471 -13.40101,-0.8847 -14.28571,0 -0.67344,0.67344 0.67343,2.18371 0,2.85715 -0.68752,0.68751 -10.74106,-0.68752 -11.42857,0 -0.67344,0.67343 0.67343,2.18371 0,2.85714 -0.67344,0.67344 -2.18371,-0.67343 -2.85715,0 -0.67343,0.67344 0.67344,2.18371 0,2.85714 -1.42857,1.42857 -7.14285,-1.42857 -8.57142,0 -0.67344,0.67344 0.67343,2.18371 0,2.85715 -1.34687,1.34687 -4.36742,-1.34687 -5.71429,0 -0.67344,0.67343 0.67344,2.1837 0,2.85714 -1.42857,1.42857 -7.14286,-1.42857 -8.57143,0 -0.67343,0.67343 0.67344,2.18371 0,2.85714 -1.34687,1.34687 -4.36741,-1.34687 -5.71428,0 -0.67344,0.67344 0.67343,2.18371 0,2.85714 -0.67344,0.67344 -1.90477,0 -2.85715,0 -0.95238,0 -1.90476,0 -2.85714,0 -7.61905,0 0.95238,-0.95238 -2.85714,2.85715 -1.42857,1.42857 -7.14286,-1.42857 -8.57143,0 -0.67344,0.67343 0.67343,2.18371 0,2.85714 -0.67344,0.67344 -3.80953,0 -2.85714,0 20.95238,0 41.90476,0 62.85714,0 6.66667,0 13.33333,0 20,0 3.27618,0 8.46888,0.73992 11.42857,0 2.066,-0.5165 3.69398,-2.18371 5.71429,-2.85714 2.40551,-0.80184 12.58467,0.85052 14.28571,0 1.20468,-0.60234 1.65247,-2.25481 2.85714,-2.85715 0.86953,-0.43476 7.2847,0 8.57143,0 6.66667,0 13.33333,0 20,0 5.71429,0 11.42857,0 17.14286,0 1.90476,0 3.90727,-0.60233 5.71428,0 1.27776,0.42592 1.65247,2.25481 2.85715,2.85715 0.85183,0.42592 1.95363,-0.30117 2.85714,0 2.02031,0.67343 3.69398,2.18371 5.71429,2.85714 0.9035,0.30117 2.0053,-0.42592 2.85714,0 2.40935,1.20468 3.30493,4.50961 5.71428,5.71429 0.85184,0.42591 1.95364,-0.30117 2.85715,0 2.0203,0.67343 3.80952,1.90476 5.71428,2.85714 1.90476,0.95238 3.94236,1.67586 5.71429,2.85714 1.12066,0.74711 1.73648,2.11004 2.85714,2.85714 1.77193,1.18129 3.94236,1.67586 5.71429,2.85715 2.24132,1.49422 3.47296,4.22007 5.71428,5.71428 1.77193,1.18129 3.94236,1.67586 5.71429,2.85715 2.24133,1.49421 3.30493,4.5096 5.71428,5.71428 0.85184,0.42592 2.00531,-0.42592 2.85715,0 0.54691,0.27346 11.15511,10.88166 11.42857,11.42857 0.42592,0.85184 -0.42592,2.00531 0,2.85715 0.60234,1.20467 1.90476,1.90476 2.85714,2.85714 2.85714,2.85714 5.71429,5.71428 8.57143,8.57143 0.95238,0.95238 2.11003,1.73648 2.85714,2.85714 1.18129,1.77193 1.3513,4.20844 2.85715,5.71429 1.50584,1.50584 4.20843,1.35129 5.71428,2.85714 1.50585,1.50585 1.67586,3.94236 2.85714,5.71428 0.74711,1.12067 2.11004,1.73648 2.85715,2.85715 1.18128,1.77192 1.67586,3.94236 2.85714,5.71428 0.74711,1.12067 2.11003,1.73648 2.85714,2.85715 3.51649,5.27472 5.05495,11.86813 8.57143,17.14285 0.74711,1.12067 2.43123,1.57939 2.85714,2.85715 0.60234,1.80701 -0.46197,3.86639 0,5.71428 0.51651,2.06601 1.90477,3.80953 2.85715,5.71429 2.85714,5.71428 5.71428,11.42857 8.57143,17.14285 0.95238,1.90477 1.90476,3.80953 2.85714,5.71429 0.95238,1.90476 2.34064,3.64828 2.85714,5.71429 0.46197,1.84789 -0.46197,3.86639 0,5.71428 0.5165,2.06601 2.34064,3.64828 2.85714,5.71429 0.46198,1.84789 -0.46197,3.86639 0,5.71428 1.03301,4.13201 4.68129,7.29657 5.71429,11.42857 0.46197,1.8479 -0.46197,3.8664 0,5.71429 1.033,4.13201 4.36742,7.38796 5.71429,11.42857 0.30117,0.90351 0,1.90476 0,2.85714 0.95238,1.90477 2.1837,3.69399 2.85714,5.71429 0.30117,0.90351 -0.30117,1.95364 0,2.85714 0.67343,2.02031 2.34064,3.64828 2.85714,5.71429 0.46197,1.84789 -0.46197,3.86639 0,5.71428 0.5165,2.06601 2.34064,3.64829 2.85714,5.71429 0.92395,3.69578 -0.92394,7.73279 0,11.42857 0.51651,2.06601 2.18371,3.69398 2.85715,5.71429 0.58104,1.74312 0,14.93619 0,17.14285 0,13.33334 0,26.66667 0,40 0,7.61905 0,15.2381 0,22.85715 0,1.28673 0.43476,7.7019 0,8.57143 -0.60234,1.20467 -2.25481,1.65246 -2.85715,2.85714 -0.77498,1.54996 0.78178,10.64679 0,11.42857 -0.67343,0.67344 -2.1837,-0.67343 -2.85714,0 -0.0919,0.0919 0,7.8785 0,8.57143 0,2.85714 0,5.71428 0,8.57143 0,0.95238 0.95238,2.85714 0,2.85714 -0.85376,0 1.88083,-9.47595 -2.85714,0 -0.85184,1.70367 1.34687,4.36741 0,5.71431 -0.67344,0.6734 -2.18371,-0.6735 -2.85714,0 -0.67344,0.6734 0.67343,2.1837 0,2.8571 -0.67344,0.6735 -2.85715,0.9524 -2.85715,0 0,-0.9524 3.80953,0 2.85715,0 -9.52381,0 -19.04762,0 -28.57143,0 -7.61905,0 -15.2381,0 -22.85715,0 -2.419,0 -9.89255,0.512 -11.42857,0 -1.27775,-0.4259 -1.57939,-2.4312 -2.85714,-2.8571 -1.58005,-0.5267 -14.26556,0 -17.14286,0 -1.90476,0 -3.90727,0.6023 -5.71428,0 -1.27776,-0.4259 -1.57939,-2.4312 -2.85715,-2.8572 -4.28571,-1.42854 -10,1.4286 -14.28571,0 -1.27775,-0.4259 -1.57939,-2.43119 -2.85714,-2.85711 -2.71053,-0.90351 -5.71429,0 -8.57143,0 -6.66667,0 -13.33333,0 -20,0 -2.85714,0 -5.86091,0.90351 -8.57143,0 -1.27775,-0.42592 -1.65247,-2.2548 -2.85714,-2.85714 -0.85184,-0.42592 -1.90476,0 -2.85715,0 -0.95238,0 -1.90476,0 -2.85714,0 -5.71428,0 -11.42857,0 -17.14286,0 -15.23809,0 -30.47619,0 -45.71428,0 -5.71429,0 -11.42857,0 -17.14286,0 -1.28673,0 -7.7019,0.43476 -8.57143,0 -1.20467,-0.60234 -1.65246,-2.25481 -2.85714,-2.85715 -1.70367,-0.85183 -4.36742,1.34687 -5.71429,0 -0.67343,-0.67343 0.67344,-2.1837 0,-2.85714 -0.67343,-0.67343 -2.1837,0.67344 -2.85714,0 -0.67343,-0.67343 0.67344,-2.18371 0,-2.85714 -0.67343,-0.67344 -2.18371,0.67343 -2.85714,0 -1.34687,-1.34687 1.34687,-4.36742 0,-5.71429 -0.67344,-0.67343 -2.18371,0.67344 -2.85714,0 -1.34687,-1.34687 0.85183,-4.01061 0,-5.71428 -0.60234,-1.20468 -2.25481,-1.65247 -2.85715,-2.85715 -0.42591,-0.85183 0.67344,-2.1837 0,-2.85714 -0.67343,-0.67343 -2.1837,0.67344 -2.85714,0 -0.67344,-0.67343 0.42592,-2.00531 0,-2.85714 -0.60234,-1.20468 -2.2548,-1.65247 -2.85714,-2.85714 -0.42592,-0.85184 0,-1.90477 0,-2.85715 0,-1.90476 0.46197,-3.86639 0,-5.71428 -0.5165,-2.06601 -2.34064,-3.64828 -2.85715,-5.71429 -0.46197,-1.84789 0.46198,-3.86639 0,-5.71428 -1.033,-4.13201 -4.68128,-7.29657 -5.71428,-11.42858 -0.46197,-1.84789 0.46197,-3.86639 0,-5.71428 -0.5165,-2.06601 -2.34064,-3.64828 -2.85714,-5.71429 -0.46198,-1.84789 0.46197,-3.86639 0,-5.71428 -0.51651,-2.06601 -2.34065,-3.64828 -2.85715,-5.71429 -0.46197,-1.84789 0.46198,-3.86639 0,-5.71428 -0.5165,-2.06601 -2.34064,-3.64829 -2.85714,-5.71429 -0.46197,-1.84789 0.46197,-3.86639 0,-5.71429 -0.5165,-2.066 -2.34064,-3.64828 -2.85714,-5.71428 -0.46198,-1.84789 0.37355,-3.84651 0,-5.71429 -0.59064,-2.9532 -2.2665,-5.61822 -2.85715,-8.57143 -0.37355,-1.86777 0.46198,-3.86639 0,-5.71428 -0.5165,-2.06601 -2.06623,-3.73701 -2.85714,-5.71429 -1.11851,-2.79628 -1.73863,-5.77514 -2.85714,-8.57143 -0.79091,-1.97727 -2.06623,-3.73701 -2.85714,-5.71428 -1.11852,-2.79629 -1.73863,-5.77514 -2.85715,-8.57143 -1.58182,-3.95455 -3.80952,-7.61905 -5.71428,-11.42857 -1.90476,-3.80952 -3.35172,-7.88472 -5.71429,-11.42857 -1.73393,-2.6009 -7.30523,-6.03904 -8.57143,-8.57143 -0.42591,-0.85184 0.42592,-2.00531 0,-2.85714 -0.60234,-1.20468 -1.90476,-1.90477 -2.85714,-2.85715 -2.23168,-2.23167 -6.92781,-6.106 -8.57143,-8.57143 -1.18128,-1.77192 -1.67586,-3.94236 -2.85714,-5.71428 -1.49422,-2.24133 -3.80953,-3.80952 -5.71429,-5.71429 -9.47595,-9.47595 1.34687,2.69374 -2.85714,-5.71428 -0.60234,-1.20468 -2.2548,-1.65247 -2.85714,-2.85715 -0.42592,-0.85183 0.42591,-2.0053 0,-2.85714 -0.60234,-1.20468 -1.90476,-1.90476 -2.85715,-2.85714 -0.95238,-0.95238 -1.65246,-2.25481 -2.85714,-2.85714 -0.85183,-0.42592 -2.00531,0.42591 -2.85714,0 -1.52596,-0.76298 -7.06725,-7.06725 -8.57143,-8.57143 -0.95238,-0.95238 -1.90476,-1.90476 -2.85714,-2.85715 -0.95238,-0.95238 -2.25481,-1.65246 -2.85715,-2.85714 -0.42591,-0.85183 0.67344,-2.18371 0,-2.85714 -1.34687,-1.34687 -4.36741,1.34687 -5.71428,0 -0.67344,-0.67344 0.67343,-2.18371 0,-2.85714 -0.0919,-0.0919 -7.8785,0 -8.57143,0 -0.95238,0 -2.18371,-0.67344 -2.85714,0 -0.67344,0.67343 0.67343,2.1837 0,2.85714 -0.67344,0.67343 -2.18371,-0.67344 -2.85715,0 -0.67343,0.67343 0.42592,2.00531 0,2.85714 -1.20467,2.40936 -4.86245,3.15878 -5.71428,5.71429 -0.60234,1.80701 0.60234,3.90727 0,5.71428 -0.42592,1.27776 -2.43123,1.57939 -2.85714,2.85715 -0.60234,1.80701 0,3.80952 0,5.71428 0,5.71429 0,11.42857 0,17.14286 0,1.90476 0,3.80952 0,5.71428 0,1.90477 0.46197,3.8664 0,5.71429 -0.51651,2.066 -2.34065,3.64828 -2.85715,5.71429 -0.58086,2.32343 0,14.15189 0,17.14285 0,13.33334 0,26.66667 0,40 0,15.2381 0,30.47619 0,45.71429 0,5.71428 0,11.42857 0,17.14286 0,1.90476 -0.46197,3.86639 0,5.71428 0.5165,2.06601 2.34064,3.64828 2.85715,5.71429 0.54319,2.17276 0,11.89317 0,14.28571 0,0.95238 -0.30117,1.95364 0,2.85714 0.67343,2.02031 2.34064,3.64829 2.85714,5.71429 0.62945,2.51781 -0.84515,15.45256 0,17.14286 0.60234,1.20467 2.2548,1.65246 2.85714,2.85714 0.42592,0.85184 0,1.90476 0,2.85714 0,5.71429 0,11.42857 0,17.14286 0,0.95238 0.67344,2.18371 0,2.85711 -0.67343,0.6735 -1.90476,0 -2.85714,0 -5.71429,0 -11.42857,0 -17.14286,0 -2.87729,0 -15.56281,0.5267 -17.14286,0 -1.27775,-0.4259 -1.57939,-2.43119 -2.85714,-2.85711 -2.23369,-0.74456 -15.57056,0.78615 -17.14286,0 -1.20467,-0.60234 -1.65246,-2.2548 -2.85714,-2.85714 -0.85183,-0.42592 -1.90476,0 -2.85714,0 -0.95238,0 -1.90476,0 -2.85714,0 -4.76191,0 -9.52381,0 -14.28572,0 -17.14286,0 -34.28571,0 -51.42857,0 -1.34714,0 -14.15622,-0.12949 -14.28571,0 -0.67344,0.67343 0.67343,2.18371 0,2.85714 -1.00292,1.00291 -12.312195,-0.98676 -14.285719,0 -1.204677,0.60234 -1.652465,2.25481 -2.857142,2.85711 -1.973524,0.9868 -13.282802,-1.00288 -14.285715,0 -0.673435,0.6735 0.673435,2.1837 0,2.8572 -0.673435,0.6734 -1.904762,0 -2.857143,0 -4.761904,0 -9.523809,0 -14.285714,0 -0.692933,0 -8.479543,-0.092 -8.571428,0 -0.673435,0.6734 0.851835,3.283 0,2.8571 -4.259178,-2.1296 -7.619048,-5.7143 -11.428572,-8.57141 z"
       id="path3340"
       inkscape:connector-curvature="0" />
    <path
       style="fill:none;fill-rule:evenodd;stroke:#000000;stroke-width:1px;stroke-linecap:butt;stroke-linejoin:miter;stroke-opacity:1"
       d="m 280,229.50506 c -6.4217,16.05424 -5.71429,9.15699 -5.71429,20 0,1.90476 0,3.80953 0,5.71429 0,1.90476 0.46198,3.86639 0,5.71428 -0.5165,2.06601 -2.34064,3.64828 -2.85714,5.71429 -1.15493,4.61973 0.78285,9.5886 0,14.28571 -0.49512,2.97072 -2.2665,5.61822 -2.85714,8.57143 -0.74711,3.73555 0,7.61905 0,11.42857 0,5.71429 0,11.42857 0,17.14286 0,6.66667 0,13.33333 0,20 0,2.85714 0,5.71429 0,8.57143 0,0.95238 0.95238,2.85714 0,2.85714 -0.95238,0 0,-1.90476 0,-2.85714 3.80952,2.85714 7.34527,6.12145 11.42857,8.57143 0.72846,0.43707 15.12661,0 17.14286,0 13.33333,0 26.66666,0 40,0 18.09524,0 36.19047,0 54.28571,0 5.71429,0 11.42857,0 17.14286,0 1.90476,0 3.90727,0.60234 5.71428,0 2.02031,-0.67344 3.64829,-2.34064 5.71429,-2.85715 2.77184,-0.69295 5.8609,0.90351 8.57143,0 2.0203,-0.67343 3.64828,-2.34064 5.71428,-2.85714 2.77184,-0.69296 5.86091,0.90351 8.57143,0 2.02031,-0.67343 3.64828,-2.34064 5.71429,-2.85714 1.84789,-0.46197 3.90727,0.60234 5.71428,0 2.55551,-0.85184 3.30494,-4.50961 5.71429,-5.71429 0.85184,-0.42591 2.18371,0.67344 2.85714,0 0.67344,-0.67343 -0.67343,-2.1837 0,-2.85714 0.67344,-0.67343 2.00531,0.42592 2.85715,0 1.20467,-0.60234 1.90476,-1.90476 2.85714,-2.85714 0.95238,-0.95238 2.2548,-1.65247 2.85714,-2.85715 0.42592,-0.85183 -0.67343,-2.1837 0,-2.85714 0.67344,-0.67343 2.18371,0.67344 2.85714,0 0.67344,-0.67343 0,-1.90476 0,-2.85714 0,-5.71429 0,-11.42857 0,-17.14286 0,-2.87729 0.52669,-15.5628 0,-17.14286 -0.42591,-1.27775 -2.2548,-1.65246 -2.85714,-2.85714 -0.42592,-0.85183 0.30117,-1.95363 0,-2.85714 -0.67343,-2.02031 -2.18371,-3.69398 -2.85714,-5.71429 -0.30117,-0.9035 0.42592,-2.0053 0,-2.85714 -0.60234,-1.20468 -2.11004,-1.73648 -2.85714,-2.85714 -1.18129,-1.77193 -1.67586,-3.94236 -2.85715,-5.71429 -0.74711,-1.12066 -2.11003,-1.73648 -2.85714,-2.85714 -1.18128,-1.77193 -1.67586,-3.94236 -2.85714,-5.71429 -1.49422,-2.24132 -4.22007,-3.47296 -5.71429,-5.71428 -1.18128,-1.77193 -1.67586,-3.94236 -2.85714,-5.71429 -1.49422,-2.24133 -4.22007,-3.47296 -5.71429,-5.71428 -1.18128,-1.77193 -1.67586,-3.94236 -2.85714,-5.71429 -1.49422,-2.24133 -3.80952,-3.80952 -5.71429,-5.71429 -1.90476,-1.90476 -3.80952,-3.80952 -5.71428,-5.71428 -1.90476,-1.90476 -3.5593,-4.09804 -5.71429,-5.71429 -1.70367,-1.27775 -4.01061,-1.57939 -5.71428,-2.85714 -2.15499,-1.61624 -3.5593,-4.09804 -5.71429,-5.71429 -1.8555,-1.39162 -14.83728,-7.8029 -17.14286,-8.57142 -0.9035,-0.30117 -1.95363,0.30117 -2.85714,0 -4.04061,-1.34687 -7.29656,-4.68129 -11.42857,-5.71429 -0.51536,-0.12884 -16.35888,-0.39199 -17.14286,0 -1.20467,0.60234 -1.65246,2.2548 -2.85714,2.85714 -0.85184,0.42592 -1.90476,0 -2.85714,0 -2.02515,0 -16.40414,-0.36935 -17.14286,0 -1.20468,0.60234 -1.65247,2.25481 -2.85714,2.85715 -1.70367,0.85183 -3.90727,-0.60234 -5.71429,0 -2.0203,0.67343 -3.69398,2.1837 -5.71428,2.85714 -0.90351,0.30117 -2.00531,-0.42592 -2.85715,0 -13.07602,6.53801 12.12405,-1.18421 -8.57143,5.71428 -0.9035,0.30117 -2.0053,-0.42591 -2.85714,0 -1.20468,0.60234 -1.57939,2.43123 -2.85714,2.85715 -1.80702,0.60234 -3.90727,-0.60234 -5.71429,0 -2.5555,0.85183 -3.30493,4.50961 -5.71428,5.71428 -0.85184,0.42592 -2.00531,-0.42591 -2.85715,0 -1.20467,0.60234 -1.90476,1.90477 -2.85714,2.85715 -3.80952,1.90476 -7.61905,3.80952 -11.42857,5.71428 z"
       id="path3342"
       inkscape:connector-curvature="0" />
    <path
       style="fill:#aa0000"
       d="m 581.48371,1004.1792 c -1.04348,-1.0435 -6.975,-1.6983 -13.18111,-1.4551 -6.20614,0.2432 -12.10343,-0.8839 -13.10511,-2.5046 -1.00169,-1.62081 -4.27298,-2.16872 -7.26952,-1.21767 -2.99654,0.95106 -6.93828,0.80835 -8.75943,-0.3172 -1.82111,-1.12551 -33.0112,-2.63517 -69.31125,-3.35477 -36.30009,-0.7196 -68.24595,-2.49614 -70.9908,-3.94783 -2.74489,-1.45171 -7.85398,-8.06077 -11.35358,-14.6868 -6.74951,-12.77934 -7.72454,-15.98968 -23.18291,-76.33303 -12.8944,-50.3346 -22.43054,-73.49025 -38.6466,-93.84162 -7.29015,-9.14923 -15.82626,-20.24306 -18.96911,-24.65289 -3.14286,-4.40986 -12.49224,-14.90977 -20.7764,-23.33314 -11.44217,-11.63443 -17.08304,-15.3152 -23.4709,-15.3152 -7.58238,0 -14.10783,6.11431 -16.0086,15 -0.25212,1.17857 -0.71192,2.46428 -1.02179,2.85714 -1.4492,1.83731 -2.54746,49.32909 -2.46119,106.42857 0.10022,66.33894 0.81607,78.91303 6.89818,121.16777 l 1.8131,12.59627 -28.20048,-2.5763 c -26.85787,-2.45371 -122.30403,-2.74308 -138.894116,-0.42111 -4.310063,0.60323 -8.70292,1.96321 -9.761905,3.02221 -3.289006,3.289 -28.215149,2.1119 -31.830189,-1.50312 -6.414909,-6.41492 -4.182153,-69.24255 4.428571,-124.61575 l 7.857143,-50.52711 -0.896927,-242.95223 c -0.791393,-214.36583 -0.337003,-246.97516 3.861805,-277.14285 3.11047,-22.34816 5.400368,-65.6478 6.611214,-125.01124 1.44444,-70.81583 2.687491,-91.336204 5.643383,-93.161405 2.084997,-1.28744 38.085001,-3.12277 80.000001,-4.07851 44.22999,-1.008527 88.19833,-3.555119 104.78052,-6.06876 21.76392,-3.299121 54.78035,-4.332645 138.57143,-4.337746 101.83123,-0.0062 111.59132,0.426219 131.42857,5.822909 11.78572,3.206284 24.96429,6.544513 29.28572,7.418288 4.32143,0.873775 7.85714,2.728469 7.85714,4.121541 0,1.393073 1.88494,2.532859 4.18877,2.532859 6.13775,0 25.42732,9.396674 28.18472,13.729824 1.3054,2.0514 5.16254,4.94119 8.57143,6.42175 16.91657,7.34729 38.37648,29.56105 50.49285,52.26661 4.74092,8.88428 8.02552,16.15324 7.29912,16.15324 -0.72637,0 0.64237,6.10715 3.04168,13.57143 4.21109,13.10073 5.37326,17.997 8.64657,36.42857 5.18018,29.16845 7.05115,110.9781 2.84243,124.28572 -1.24245,3.92857 -2.77745,12.03866 -3.41111,18.0224 -0.63363,5.98377 -2.01052,12.26857 -3.05974,13.96623 -1.0492,1.69765 -2.328,8.04445 -2.84175,14.104 -0.51371,6.05951 -2.95203,14.9196 -5.41843,19.68911 -2.4664,4.76949 -3.79942,9.78 -2.96231,11.13449 0.83711,1.35448 -1.08923,8.36591 -4.28077,15.58091 -3.19154,7.21503 -5.59706,13.46192 -5.34554,13.88197 0.25142,0.42006 -3.87678,8.07106 -9.17392,17.00223 -13.29386,22.41394 -46.1554,58.16363 -64.87468,70.57637 -8.56643,5.6804 -18.92678,12.53332 -23.02303,15.22869 -11.0956,7.301 -29.38712,15.8366 -38.9754,18.18754 -4.65977,1.14254 -9.11517,3.01566 -9.90089,4.16249 -0.78571,1.14683 -11.71428,4.99163 -24.28571,8.54397 -23.185,6.55143 -30.3306,8.13548 -45.71429,10.13397 -4.71428,0.61246 -14.82108,2.40969 -22.45957,3.99389 -7.63849,1.5842 -14.94251,2.22871 -16.23114,1.43228 -1.28866,-0.79643 -3.1506,-0.14143 -4.13763,1.45572 -0.98703,1.59705 -4.93303,2.90374 -8.76886,2.90374 -3.83583,0 -6.97423,1.42326 -6.97423,3.16283 0,1.73954 -1.92857,2.42277 -4.28571,1.51823 -2.35714,-0.90452 -4.28572,-0.32335 -4.28572,1.29151 0,1.61486 -1.28571,2.14149 -2.85714,1.17029 -1.57143,-0.9712 -2.85714,-0.26658 -2.85714,1.56562 0,1.83229 -1.92857,2.5914 -4.28572,1.68686 C 352.92857,624.13875 351,624.71992 351,626.33478 c 0,1.61485 -1.17591,2.20934 -2.61311,1.32111 -1.4372,-0.88826 -3.08383,-0.20286 -3.65918,1.52317 -0.57534,1.726 -4.52711,3.34117 -8.78171,3.58923 -4.2546,0.248 -8.40574,2.19477 -9.22474,4.326 -1.23557,3.21511 7.88068,3.5838 53.53765,2.16509 30.26475,-0.9404 66.38632,-2.49915 80.27015,-3.46383 C 485.4592,634.06332 511,638.00803 511,643.59066 c 0,1.3672 1.76171,2.48583 3.91494,2.48583 13.09406,0 76.81195,60.053 88.71509,83.6124 2.56894,5.0846 5.75903,11.17331 7.08906,13.53046 5.92854,10.50674 20.03848,45.80057 24.55825,61.42857 2.72683,9.42857 5.96446,19.71428 7.19477,22.85714 11.21989,28.66163 11.8386,32.80977 13.35509,89.53592 0.80489,30.10868 0.156,45.04525 -2.07383,47.73197 -1.78491,2.15071 -2.57068,5.00194 -1.74614,6.33608 1.30326,2.10875 0.36697,7.95757 -4.22549,26.39603 -0.58711,2.35714 -2.35317,5.23034 -3.9246,6.38484 -3.56528,2.6194 -59.78263,2.8802 -62.37343,0.2893 z M 432.91014,352.87679 c 17.24526,-3.42316 26.01037,-6.83491 33.57143,-13.06737 9.8122,-8.08804 10.23272,-9.1931 10.23272,-26.88985 0,-22.4515 -3.91986,-32.35095 -23.46615,-59.26302 -17.37283,-23.91958 -37.9622,-41.86411 -57.78288,-50.36024 -16.65123,-7.13755 -19.93092,-7.35818 -47.3224,-3.18347 -19.32337,2.94506 -60.48232,20.07073 -69.84849,29.06301 -2.41552,2.31909 -3.90692,9.98999 -8.84078,45.47207 -0.76478,5.5 -1.44904,24.58806 -1.52056,42.4179 -0.11243,28.02533 0.57048,32.94904 5.0399,36.33771 7.99763,6.06373 128.73893,5.66607 159.93721,-0.52674 z"
       id="path3344"
       inkscape:connector-curvature="0" />
  </g>
</svg>
